<?xml version="1.0" encoding="UTF-8" standalone="no"?>

<svg
   viewBox="0 0 67.733332 67.733333"
   version="1.1"
   id="svg1"
   xmlns="http://www.w3.org/2000/svg"
   xmlns:svg="http://www.w3.org/2000/svg">
  <defs
     id="defs1" />
  <g
     id="layer1" />
  <path
     id="path56"
     style="baseline-shift:baseline;display:inline;overflow:visible;enable-background:accumulate;stop-color:#000000;stop-opacity:1;opacity:1;stroke:#972a2d;stroke-opacity:1;fill:#ff747a;fill-opacity:1;stroke-width:2.00559484;stroke-dasharray:none"
     d="M 8.7038104 23.004611 L -1.3837257 17.293628 L -5.7317791 24.678632 C -7.6071095 24.177663 -9.5766534 23.910121 -11.605266 23.910121 C -13.633592 23.910121 -15.603156 24.177545 -17.478159 24.678377 L -21.826254 17.293953 L -31.913448 23.004357 L -27.538468 30.434442 C -30.290959 33.1463 -32.338882 36.553239 -33.375892 40.363042 L -42.134999 40.363096 L -42.134658 51.784483 L -33.37626 51.784228 C -32.339374 55.594247 -30.291495 59.001837 -27.538953 61.71386 L -31.913681 69.142897 L -21.826145 74.853881 L -17.478445 67.470283 C -15.603301 67.971196 -13.633719 68.238341 -11.605224 68.238341 C -9.576441 68.238341 -7.6069168 67.970634 -5.731445 67.469584 L -1.3836167 74.853556 L 8.7035779 69.143152 L 4.3288635 61.713519 C 7.0817073 59.001505 9.1301167 55.594411 10.167174 51.784417 L 18.925129 51.784413 L 18.924787 40.363026 L 10.166833 40.36303 C 9.1296522 36.55325 7.0817007 33.146202 4.3289058 30.434352 L 8.7038104 23.004611 z M 1.804899 38.986922 C 2.9689396 41.093271 3.6269804 43.507729 3.6269804 46.074352 C 3.6269804 54.287545 -3.1115449 60.937547 -11.605478 60.937547 C -20.099411 60.937547 -26.836052 54.287706 -26.836052 46.074513 C -26.836052 37.861319 -20.099567 31.208856 -11.605634 31.208856 C -5.7660547 31.208856 -0.75599046 34.352955 1.804899 38.986922 z "
     transform="matrix(0.48531767,-0.8743379,0.85729385,0.51482741,0,0)" />
</svg>
